<?xml version="1.0" encoding="utf-8"?>
<!-- Generator: Adobe Illustrator 26.2.1, SVG Export Plug-In . SVG Version: 6.00 Build 0)  -->
<svg version="1.1" id="Layer_1" xmlns="http://www.w3.org/2000/svg" xmlns:xlink="http://www.w3.org/1999/xlink" x="0px" y="0px"
	 viewBox="0 0 722.8 630.6" style="enable-background:new 0 0 722.8 630.6;" xml:space="preserve">
<style type="text/css">
	.st0{fill:none;stroke:#27AAE1;stroke-width:4.09;stroke-miterlimit:10;}
	.st1{fill:#FFFFFF;stroke:#27AAE1;stroke-width:4;stroke-miterlimit:10;}
	.st2{fill:#ED1C24;}
	.st3{font-family:'Montserrat-Bold';}
	.st4{font-size:37.7px;}
	.st5{fill:#231F20;}
	.st6{fill:#27AAE1;}
	.st7{enable-background:new    ;}
	.st8{fill:#6D6E71;}
</style>
<path class="st0" d="M67.7,2h587.5c36.2,0,65.6,29.4,65.6,65.6v495.3c0,36.2-29.4,65.6-65.6,65.6H67.7C31.4,628.6,2,599.2,2,562.9
	V67.7C2,31.4,31.4,2,67.7,2z"/>
<path class="st1" d="M410.2,50.4h202.6c15.3,0,27.8,12.4,27.8,27.8v29.8c0,15.3-12.4,27.8-27.8,27.8H410.2
	c-15.3,0-27.8-12.4-27.8-27.8V78.1C382.4,62.8,394.9,50.4,410.2,50.4z"/>
<text transform="matrix(1 0 0 1 82.33 95.47)" class="st2 st3 st4">S</text>
<text transform="matrix(1 0 0 1 105.85 95.47)" class="st2 st3 st4">tart</text>
<text transform="matrix(1 0 0 1 176.91 95.47)" class="st5 st3 st4"> </text>
<text transform="matrix(1 0 0 1 186.86 95.47)" class="st6 st3 st4">Number</text>
<g class="st7">
	<path class="st8" d="M88.7,115.7c-0.4,0.3-0.6,0.7-0.6,1.2c0,0.5,0.2,0.9,0.7,1.2s1.5,0.7,3.2,1.1c1.7,0.4,3,1,3.9,1.9
		s1.4,2,1.4,3.6c0,1.6-0.6,2.9-1.8,3.9s-2.8,1.5-4.7,1.5c-2.8,0-5.3-1-7.6-3.1l2.4-2.9c1.9,1.7,3.7,2.5,5.3,2.5
		c0.7,0,1.3-0.2,1.7-0.5c0.4-0.3,0.6-0.7,0.6-1.3c0-0.5-0.2-1-0.7-1.3c-0.4-0.3-1.3-0.6-2.6-1c-2.1-0.5-3.6-1.1-4.5-1.9
		c-1-0.8-1.4-2-1.4-3.7c0-1.7,0.6-3,1.8-3.9c1.2-0.9,2.7-1.4,4.5-1.4c1.2,0,2.4,0.2,3.6,0.6c1.2,0.4,2.2,1,3.1,1.7l-2,2.9
		c-1.5-1.2-3.1-1.8-4.8-1.8C89.6,115.3,89,115.4,88.7,115.7z"/>
	<path class="st8" d="M104.5,119v6.1c0,0.5,0.1,0.9,0.4,1.2c0.3,0.3,0.6,0.4,1,0.4c0.7,0,1.3-0.3,1.8-1l1.4,2.7
		c-1.2,1.1-2.4,1.6-3.7,1.6c-1.3,0-2.4-0.4-3.3-1.3c-0.9-0.9-1.4-2-1.4-3.5V119h-1.6v-2.7h1.6v-4.1h3.8v4.1h3.3v2.7H104.5z"/>
	<path class="st8" d="M122.8,129.9h-3.6v-1.7c-1,1.2-2.2,1.9-3.6,1.9s-2.7-0.4-3.6-1.3c-1-0.8-1.5-2-1.5-3.4s0.5-2.4,1.5-3.1
		c1-0.7,2.4-1,4.2-1h2.8v-0.1c0-1.5-0.8-2.2-2.3-2.2c-0.7,0-1.4,0.1-2.1,0.4c-0.7,0.3-1.4,0.6-1.9,1L111,118c1.8-1.3,3.8-2,6.1-2
		c1.7,0,3,0.4,4.1,1.2c1,0.8,1.6,2.1,1.6,3.9V129.9z M118.9,124.7v-0.7h-2.4c-1.5,0-2.3,0.5-2.3,1.4c0,0.5,0.2,0.9,0.5,1.1
		c0.4,0.3,0.9,0.4,1.6,0.4c0.7,0,1.3-0.2,1.8-0.6C118.7,126,118.9,125.4,118.9,124.7z"/>
</g>
<g class="st7">
	<path class="st8" d="M132.2,119.6c-1.1,0-2,0.4-2.5,1.2c-0.6,0.8-0.8,1.9-0.8,3.2v5.9h-3.8v-13.7h3.8v1.8c0.5-0.6,1.1-1,1.8-1.4
		c0.7-0.4,1.5-0.6,2.2-0.6l0,3.6H132.2z"/>
</g>
<g class="st7">
	<path class="st8" d="M140.2,119v6.1c0,0.5,0.1,0.9,0.4,1.2c0.3,0.3,0.6,0.4,1,0.4c0.7,0,1.3-0.3,1.8-1l1.4,2.7
		c-1.2,1.1-2.4,1.6-3.7,1.6c-1.3,0-2.4-0.4-3.3-1.3c-0.9-0.9-1.4-2-1.4-3.5V119h-1.6v-2.7h1.6v-4.1h3.8v4.1h3.3v2.7H140.2z"/>
	<path class="st8" d="M147.1,114.5c-0.4-0.4-0.6-1-0.6-1.6c0-0.6,0.2-1.2,0.6-1.6c0.4-0.4,1-0.6,1.6-0.6c0.6,0,1.2,0.2,1.6,0.6
		c0.4,0.4,0.6,1,0.6,1.6c0,0.6-0.2,1.2-0.6,1.6c-0.4,0.4-1,0.6-1.6,0.6C148.1,115.2,147.5,115,147.1,114.5z M150.6,129.9h-3.8v-13.7
		h3.8V129.9z"/>
</g>
<g class="st7">
	<path class="st8" d="M156.6,122.3v7.6h-3.8v-13.7h3.8v1.5c1.2-1.2,2.4-1.8,3.9-1.8c1.4,0,2.6,0.5,3.6,1.5c1,1,1.5,2.4,1.5,4.1v8.3
		h-3.8v-7.7c0-2.1-0.8-3.1-2.3-3.1c-0.8,0-1.4,0.3-2,0.8C156.9,120.5,156.6,121.3,156.6,122.3z"/>
</g>
<g class="st7">
	<path class="st8" d="M180.1,127.6c-1.2,1.3-2.7,2-4.5,2c-1.8,0-3.3-0.6-4.5-1.8c-1.2-1.2-1.8-2.8-1.8-4.9c0-2,0.6-3.7,1.9-5
		c1.3-1.3,2.7-1.9,4.3-1.9s3,0.7,4,2v-1.8h3.8v11.9c0,1.2-0.2,2.3-0.6,3.3c-0.4,0.9-1,1.7-1.7,2.2c-1.4,1.1-3.1,1.7-5,1.7
		c-1,0-2.1-0.2-3.1-0.5c-1.1-0.3-2-0.8-2.8-1.4l1.5-2.9c1.3,0.9,2.6,1.4,4,1.4s2.5-0.3,3.3-1C179.7,130.2,180.1,129.1,180.1,127.6z
		 M179.6,122.8c0-1.1-0.3-2-0.9-2.6c-0.6-0.6-1.4-0.9-2.3-0.9c-0.9,0-1.7,0.3-2.3,0.9c-0.7,0.6-1,1.5-1,2.6c0,1.1,0.3,2,1,2.6
		s1.4,1,2.3,1c0.9,0,1.7-0.3,2.3-1C179.3,124.8,179.6,123.9,179.6,122.8z"/>
	<path class="st8" d="M197.5,122.3v7.6h-3.8v-13.7h3.8v1.5c1.2-1.2,2.4-1.8,3.9-1.8c1.4,0,2.6,0.5,3.6,1.5c1,1,1.5,2.4,1.5,4.1v8.3
		h-3.8v-7.7c0-2.1-0.8-3.1-2.3-3.1c-0.8,0-1.4,0.3-2,0.8C197.8,120.5,197.5,121.3,197.5,122.3z"/>
	<path class="st8" d="M218.7,123.6v-7.4h3.8v13.7h-3.8v-1.8c-0.9,1.3-2.2,2-3.7,2s-2.8-0.5-3.8-1.4c-1-0.9-1.5-2.3-1.5-4.2v-8.3h3.8
		v7.4c0,2.1,0.8,3.1,2.3,3.1c0.8,0,1.4-0.3,2-0.8C218.4,125.5,218.7,124.7,218.7,123.6z"/>
	<path class="st8" d="M238.7,122.6v7.4h-3.8v-7.5c0-1.1-0.2-1.9-0.5-2.4c-0.3-0.5-0.9-0.8-1.6-0.8c-0.7,0-1.4,0.3-2,0.8
		c-0.6,0.6-0.9,1.4-0.9,2.4v7.4h-3.8v-13.7h3.8v1.5c1-1.2,2.3-1.8,3.6-1.8c0.9,0,1.6,0.3,2.3,0.8s1.2,1.1,1.6,1.9
		c0.5-0.8,1.2-1.5,2.1-1.9c0.9-0.5,1.8-0.7,2.7-0.7c1.6,0,2.9,0.5,3.9,1.4c1,1,1.5,2.3,1.5,4.2v8.3h-3.8v-7.5c0-2.1-0.8-3.1-2.3-3.1
		c-0.8,0-1.4,0.3-2,0.8C239,120.7,238.7,121.5,238.7,122.6z"/>
	<path class="st8" d="M259,116.1c1.7,0,3.1,0.6,4.3,1.9c1.2,1.3,1.9,3,1.9,5c0,2-0.6,3.7-1.9,5.1c-1.3,1.4-2.7,2.1-4.3,2.1
		c-1.6,0-3-0.7-4-2v1.8h-3.8v-18.8h3.8v6.7C256,116.6,257.3,116.1,259,116.1z M254.9,123.1c0,1.1,0.3,2,0.9,2.7
		c0.6,0.7,1.4,1.1,2.2,1.1c0.9,0,1.7-0.4,2.3-1.1c0.7-0.7,1-1.6,1-2.7c0-1.1-0.3-2-1-2.8c-0.6-0.7-1.4-1.1-2.3-1.1s-1.7,0.4-2.3,1.1
		C255.2,121.1,254.9,122,254.9,123.1z"/>
	<path class="st8" d="M279.9,128c-1.5,1.5-3.3,2.2-5.4,2.2c-2.1,0-3.8-0.6-5.1-1.9c-1.4-1.3-2-3-2-5.1c0-2.1,0.7-3.9,2.1-5.1
		c1.4-1.3,3-1.9,4.9-1.9c1.9,0,3.5,0.6,4.8,1.7c1.3,1.1,2,2.7,2,4.7v2h-10c0.1,0.7,0.5,1.4,1.2,1.8c0.7,0.5,1.4,0.7,2.2,0.7
		c1.3,0,2.4-0.4,3.3-1.3L279.9,128z M276.2,119.9c-0.5-0.4-1.2-0.7-1.9-0.7c-0.8,0-1.4,0.2-2.1,0.7s-1,1.1-1.1,1.9h6
		C277,120.9,276.7,120.3,276.2,119.9z"/>
	<path class="st8" d="M290.9,119.6c-1.1,0-2,0.4-2.5,1.2c-0.6,0.8-0.8,1.9-0.8,3.2v5.9h-3.8v-13.7h3.8v1.8c0.5-0.6,1.1-1,1.8-1.4
		c0.7-0.4,1.5-0.6,2.2-0.6l0,3.6H290.9z"/>
</g>
<g class="st7">
	<path class="st8" d="M316.6,128c-1.5,1.5-3.3,2.2-5.4,2.2c-2.1,0-3.8-0.6-5.1-1.9c-1.4-1.3-2-3-2-5.1c0-2.1,0.7-3.9,2.1-5.1
		c1.4-1.3,3-1.9,4.9-1.9c1.9,0,3.5,0.6,4.8,1.7c1.3,1.1,2,2.7,2,4.7v2h-10c0.1,0.7,0.5,1.4,1.2,1.8c0.7,0.5,1.4,0.7,2.2,0.7
		c1.3,0,2.4-0.4,3.3-1.3L316.6,128z M312.9,119.9c-0.5-0.4-1.2-0.7-1.9-0.7c-0.8,0-1.4,0.2-2.1,0.7s-1,1.1-1.1,1.9h6
		C313.7,120.9,313.4,120.3,312.9,119.9z"/>
</g>
<g class="st7">
	<path class="st8" d="M323,116.3l2.3,3.7l2.4-3.7h4.5l-4.7,6.7l4.9,7h-4.5l-2.7-3.8l-2.6,3.8h-4.4l4.8-7l-4.5-6.7H323z"/>
</g>
<g class="st7">
	<path class="st8" d="M333.5,122.8c-0.4-0.4-0.6-1-0.6-1.6s0.2-1.2,0.6-1.6c0.4-0.4,1-0.6,1.6-0.6c0.6,0,1.2,0.2,1.6,0.6
		s0.6,1,0.6,1.6s-0.2,1.2-0.6,1.6s-1,0.6-1.6,0.6C334.5,123.5,334,123.3,333.5,122.8z M333.5,129.5c-0.4-0.4-0.6-1-0.6-1.6
		s0.2-1.2,0.6-1.6c0.4-0.4,1-0.6,1.6-0.6c0.6,0,1.2,0.2,1.6,0.6c0.4,0.4,0.6,1,0.6,1.6s-0.2,1.2-0.6,1.6c-0.4,0.4-1,0.6-1.6,0.6
		C334.5,130.1,334,129.9,333.5,129.5z"/>
	<path class="st8" d="M346.6,112.2h7.2v17.8h-3.8v-14.4h-3.4V112.2z"/>
</g>
<g>
	<g class="st7">
		<path class="st8" d="M96.5,228.8v3.3h-8.3v3.5h7.5v3.2h-7.5v3.5h8.6v3.3H84.4v-16.8H96.5z"/>
	</g>
	<g class="st7">
		<path class="st8" d="M103.7,238.4v7.2h-3.6v-12.9h3.6v1.4c1.1-1.1,2.3-1.7,3.7-1.7s2.5,0.5,3.4,1.4c0.9,1,1.4,2.2,1.4,3.8v7.8
			h-3.6v-7.3c0-2-0.7-3-2.2-3c-0.7,0-1.3,0.3-1.9,0.8C103.9,236.6,103.7,237.4,103.7,238.4z"/>
	</g>
	<g class="st7">
		<path class="st8" d="M121.5,245.8c-1.5,0-2.9-0.6-4.1-1.9c-1.2-1.3-1.8-2.9-1.8-4.8c0-1.9,0.6-3.5,1.8-4.7
			c1.2-1.2,2.5-1.8,4.1-1.8c1.6,0,2.8,0.6,3.8,1.7v-6.3h3.6v17.8h-3.6v-1.7C124.3,245.2,123.1,245.8,121.5,245.8z M119.3,239.2
			c0,1,0.3,1.9,0.9,2.6c0.6,0.7,1.4,1,2.2,1s1.5-0.3,2.1-1c0.6-0.7,0.9-1.5,0.9-2.6c0-1-0.3-1.9-0.9-2.6c-0.6-0.7-1.3-1-2.1-1
			s-1.6,0.4-2.2,1.1C119.6,237.3,119.3,238.1,119.3,239.2z"/>
		<path class="st8" d="M132.6,231c-0.4-0.4-0.6-0.9-0.6-1.5s0.2-1.1,0.6-1.5c0.4-0.4,0.9-0.6,1.5-0.6s1.1,0.2,1.5,0.6
			s0.6,0.9,0.6,1.5s-0.2,1.1-0.6,1.5c-0.4,0.4-0.9,0.6-1.5,0.6S133.1,231.5,132.6,231z M135.9,245.6h-3.6v-12.9h3.6V245.6z"/>
	</g>
	<g class="st7">
		<path class="st8" d="M142.7,238.4v7.2h-3.6v-12.9h3.6v1.4c1.1-1.1,2.3-1.7,3.7-1.7s2.5,0.5,3.4,1.4c0.9,1,1.4,2.2,1.4,3.8v7.8
			h-3.6v-7.3c0-2-0.7-3-2.2-3c-0.7,0-1.3,0.3-1.9,0.8C143,236.6,142.7,237.4,142.7,238.4z"/>
	</g>
	<g class="st7">
		<path class="st8" d="M164.9,243.4c-1.1,1.3-2.5,1.9-4.2,1.9c-1.7,0-3.1-0.6-4.3-1.7c-1.2-1.1-1.7-2.7-1.7-4.6
			c0-1.9,0.6-3.5,1.8-4.7c1.2-1.2,2.6-1.8,4.1-1.8c1.5,0,2.8,0.6,3.8,1.9v-1.7h3.6v11.3c0,1.2-0.2,2.2-0.6,3.1
			c-0.4,0.9-0.9,1.6-1.6,2.1c-1.3,1.1-2.9,1.6-4.7,1.6c-1,0-1.9-0.2-2.9-0.5s-1.9-0.8-2.6-1.3l1.4-2.7c1.2,0.9,2.4,1.3,3.8,1.3
			s2.4-0.3,3.1-1C164.5,245.9,164.9,244.8,164.9,243.4z M164.4,238.9c0-1-0.3-1.8-0.9-2.4s-1.3-0.9-2.1-0.9c-0.8,0-1.6,0.3-2.2,0.9
			s-0.9,1.4-0.9,2.4c0,1,0.3,1.9,0.9,2.5c0.6,0.6,1.3,0.9,2.2,0.9c0.9,0,1.6-0.3,2.2-0.9C164.1,240.7,164.4,239.9,164.4,238.9z"/>
		<path class="st8" d="M181.3,238.4v7.2h-3.6v-12.9h3.6v1.4c1.1-1.1,2.3-1.7,3.7-1.7s2.5,0.5,3.4,1.4c0.9,1,1.4,2.2,1.4,3.8v7.8
			h-3.6v-7.3c0-2-0.7-3-2.2-3c-0.7,0-1.3,0.3-1.9,0.8C181.6,236.6,181.3,237.4,181.3,238.4z"/>
		<path class="st8" d="M201.4,239.6v-7h3.6v12.9h-3.6v-1.7c-0.9,1.3-2.1,1.9-3.5,1.9c-1.4,0-2.6-0.4-3.6-1.3c-1-0.9-1.4-2.2-1.4-3.9
			v-7.8h3.6v7c0,2,0.7,3,2.2,3c0.7,0,1.3-0.3,1.9-0.8C201.1,241.4,201.4,240.6,201.4,239.6z"/>
		<path class="st8" d="M220.2,238.6v7h-3.6v-7.1c0-1-0.2-1.8-0.5-2.3c-0.3-0.5-0.8-0.7-1.5-0.7s-1.3,0.3-1.8,0.8
			c-0.5,0.5-0.8,1.3-0.8,2.3v7h-3.6v-12.9h3.6v1.5c1-1.1,2.1-1.7,3.4-1.7c0.8,0,1.6,0.2,2.2,0.7c0.7,0.5,1.2,1.1,1.5,1.8
			c0.5-0.8,1.2-1.4,2-1.8c0.8-0.4,1.7-0.6,2.5-0.6c1.5,0,2.7,0.5,3.7,1.4c0.9,0.9,1.4,2.2,1.4,3.9v7.8h-3.6v-7.1c0-2-0.7-3-2.2-3
			c-0.7,0-1.3,0.3-1.9,0.8S220.2,237.6,220.2,238.6z"/>
		<path class="st8" d="M239.4,232.5c1.6,0,2.9,0.6,4.1,1.8c1.2,1.2,1.8,2.8,1.8,4.7c0,1.9-0.6,3.5-1.8,4.8c-1.2,1.3-2.6,1.9-4.1,1.9
			c-1.5,0-2.8-0.6-3.8-1.9v1.7H232v-17.8h3.6v6.3C236.6,233,237.8,232.5,239.4,232.5z M235.5,239.2c0,1,0.3,1.9,0.9,2.6
			c0.6,0.7,1.3,1,2.1,1s1.6-0.3,2.2-1c0.6-0.7,0.9-1.5,0.9-2.6s-0.3-1.9-0.9-2.6c-0.6-0.7-1.3-1.1-2.2-1.1s-1.6,0.3-2.1,1
			C235.8,237.2,235.5,238.1,235.5,239.2z"/>
		<path class="st8" d="M259.1,243.7c-1.5,1.4-3.2,2.1-5.1,2.1c-2,0-3.6-0.6-4.9-1.8c-1.3-1.2-1.9-2.8-1.9-4.9c0-2,0.7-3.6,2-4.8
			c1.3-1.2,2.8-1.8,4.6-1.8c1.8,0,3.3,0.5,4.5,1.6c1.2,1.1,1.9,2.5,1.9,4.4v1.9h-9.4c0.1,0.7,0.5,1.3,1.1,1.7s1.3,0.7,2.1,0.7
			c1.3,0,2.3-0.4,3.1-1.3L259.1,243.7z M255.7,236.1c-0.5-0.4-1.1-0.6-1.8-0.6s-1.4,0.2-2,0.6c-0.6,0.4-0.9,1-1,1.8h5.7
			C256.5,237.1,256.2,236.5,255.7,236.1z"/>
		<path class="st8" d="M269.6,235.9c-1.1,0-1.9,0.4-2.4,1.1c-0.5,0.8-0.8,1.8-0.8,3v5.6h-3.6v-12.9h3.6v1.7c0.5-0.5,1-1,1.7-1.3
			c0.7-0.4,1.4-0.6,2.1-0.6l0,3.4H269.6z"/>
	</g>
	<g class="st7">
		<path class="st8" d="M293.8,243.7c-1.5,1.4-3.2,2.1-5.1,2.1c-2,0-3.6-0.6-4.9-1.8c-1.3-1.2-1.9-2.8-1.9-4.9c0-2,0.7-3.6,2-4.8
			c1.3-1.2,2.8-1.8,4.6-1.8c1.8,0,3.3,0.5,4.5,1.6c1.2,1.1,1.9,2.5,1.9,4.4v1.9h-9.4c0.1,0.7,0.5,1.3,1.1,1.7s1.3,0.7,2.1,0.7
			c1.3,0,2.3-0.4,3.1-1.3L293.8,243.7z M290.3,236.1c-0.5-0.4-1.1-0.6-1.8-0.6s-1.4,0.2-2,0.6c-0.6,0.4-0.9,1-1,1.8h5.7
			C291.1,237.1,290.8,236.5,290.3,236.1z"/>
	</g>
	<g class="st7">
		<path class="st8" d="M299.9,232.7l2.2,3.5l2.3-3.5h4.2l-4.4,6.3l4.6,6.6h-4.3L302,242l-2.4,3.6h-4.2l4.5-6.6l-4.3-6.3H299.9z"/>
	</g>
	<g class="st7">
		<path class="st8" d="M309.8,238.9c-0.4-0.4-0.6-0.9-0.6-1.5s0.2-1.1,0.6-1.5c0.4-0.4,0.9-0.6,1.5-0.6s1.1,0.2,1.5,0.6
			s0.6,0.9,0.6,1.5s-0.2,1.1-0.6,1.5c-0.4,0.4-0.9,0.6-1.5,0.6S310.3,239.3,309.8,238.9z M309.8,245.2c-0.4-0.4-0.6-0.9-0.6-1.5
			c0-0.6,0.2-1.1,0.6-1.5c0.4-0.4,0.9-0.6,1.5-0.6s1.1,0.2,1.5,0.6c0.4,0.4,0.6,0.9,0.6,1.5c0,0.6-0.2,1.1-0.6,1.5s-0.9,0.6-1.5,0.6
			S310.3,245.6,309.8,245.2z"/>
		<path class="st8" d="M322.1,228.8h6.8v16.8h-3.6V232h-3.2V228.8z"/>
		<path class="st8" d="M339.3,245.8c-2.3,0-4.1-0.8-5.2-2.4s-1.7-3.7-1.7-6.3s0.6-4.7,1.7-6.3c1.2-1.6,2.9-2.4,5.2-2.4
			s4.1,0.8,5.2,2.4c1.2,1.6,1.7,3.7,1.7,6.3s-0.6,4.7-1.7,6.3S341.7,245.8,339.3,245.8z M336.9,233.1c-0.5,1-0.8,2.4-0.8,4.1
			c0,1.7,0.3,3,0.8,4.1s1.4,1.5,2.5,1.5s1.9-0.5,2.5-1.5s0.8-2.4,0.8-4.1c0-1.7-0.3-3-0.8-4.1c-0.5-1-1.4-1.5-2.5-1.5
			S337.4,232.1,336.9,233.1z"/>
		<path class="st8" d="M355.9,245.8c-2.3,0-4.1-0.8-5.2-2.4s-1.7-3.7-1.7-6.3s0.6-4.7,1.7-6.3c1.2-1.6,2.9-2.4,5.2-2.4
			s4.1,0.8,5.2,2.4c1.2,1.6,1.7,3.7,1.7,6.3s-0.6,4.7-1.7,6.3C359.9,245,358.2,245.8,355.9,245.8z M353.4,233.1
			c-0.5,1-0.8,2.4-0.8,4.1c0,1.7,0.3,3,0.8,4.1s1.4,1.5,2.5,1.5s1.9-0.5,2.5-1.5s0.8-2.4,0.8-4.1c0-1.7-0.3-3-0.8-4.1
			c-0.5-1-1.4-1.5-2.5-1.5S353.9,232.1,353.4,233.1z"/>
	</g>
</g>
<g>
	<g class="st7">
		<path class="st8" d="M84.2,343.5h3.4v15.1h-3.4V343.5z"/>
		<path class="st8" d="M94.7,346.3v0.8h2.8v2.3h-2.8v9.2h-3.3v-9.2H90v-2.3h1.4v-0.7c0-1.3,0.4-2.3,1.2-3c0.8-0.7,1.7-1.1,2.9-1.1
			c1.1,0,2.2,0.4,3.1,1.3l-1.2,2.2c-0.5-0.5-1-0.8-1.6-0.8c-0.3,0-0.6,0.1-0.8,0.4C94.8,345.5,94.7,345.9,94.7,346.3z"/>
		<path class="st8" d="M105.3,346.4v-2.9h9.3v2.3l-3.1,3.5c1.2,0.2,2.1,0.7,2.8,1.5c0.7,0.8,1,1.8,1,2.8c0,1.6-0.5,2.8-1.6,3.7
			c-1.1,0.9-2.4,1.4-4.1,1.4c-1.7,0-3.4-0.6-5.1-1.8l1.4-2.7c1.4,1,2.7,1.5,3.8,1.5c0.7,0,1.2-0.2,1.7-0.5c0.4-0.3,0.7-0.8,0.7-1.4
			c0-0.6-0.3-1.1-0.8-1.5c-0.5-0.4-1.2-0.6-2.1-0.6c-0.5,0-1.1,0.1-2,0.4v-2.5l2.9-3.4H105.3z"/>
		<path class="st8" d="M128.3,358.8c-1.4,0-2.6-0.6-3.7-1.8c-1.1-1.2-1.6-2.6-1.6-4.3c0-1.7,0.5-3.1,1.6-4.2s2.3-1.7,3.7-1.7
			c1.4,0,2.6,0.5,3.5,1.5v-5.7h3.2v16h-3.2v-1.5C130.9,358.2,129.7,358.8,128.3,358.8z M126.3,352.8c0,0.9,0.3,1.7,0.8,2.3
			c0.6,0.6,1.2,0.9,2,0.9c0.7,0,1.4-0.3,1.9-0.9c0.5-0.6,0.8-1.4,0.8-2.3c0-0.9-0.3-1.7-0.8-2.4c-0.5-0.6-1.2-0.9-1.9-0.9
			c-0.8,0-1.4,0.3-2,1C126.6,351.1,126.3,351.9,126.3,352.8z"/>
		<path class="st8" d="M138.3,345.5c-0.4-0.4-0.6-0.8-0.6-1.4c0-0.5,0.2-1,0.6-1.4c0.4-0.4,0.8-0.6,1.4-0.6c0.5,0,1,0.2,1.4,0.6
			c0.4,0.4,0.6,0.8,0.6,1.4c0,0.5-0.2,1-0.6,1.4c-0.4,0.4-0.8,0.6-1.4,0.6C139.2,346.1,138.7,345.9,138.3,345.5z M141.3,358.6h-3.2
			V347h3.2V358.6z"/>
		<path class="st8" d="M153,356.7c-1,1.1-2.3,1.7-3.8,1.7c-1.5,0-2.8-0.5-3.8-1.5c-1-1-1.6-2.4-1.6-4.1s0.5-3.1,1.6-4.2
			c1.1-1.1,2.3-1.7,3.7-1.7c1.4,0,2.5,0.6,3.4,1.7V347h3.2v10.1c0,1-0.2,2-0.5,2.8c-0.4,0.8-0.8,1.4-1.4,1.9c-1.2,1-2.6,1.4-4.2,1.4
			c-0.9,0-1.7-0.1-2.6-0.4c-0.9-0.3-1.7-0.7-2.4-1.2l1.3-2.4c1.1,0.8,2.2,1.2,3.4,1.2c1.2,0,2.1-0.3,2.8-0.9
			C152.7,358.9,153,357.9,153,356.7z M152.5,352.6c0-0.9-0.3-1.7-0.8-2.2c-0.5-0.5-1.2-0.8-1.9-0.8c-0.8,0-1.4,0.3-2,0.8
			c-0.6,0.5-0.8,1.3-0.8,2.2c0,0.9,0.3,1.7,0.8,2.2c0.5,0.6,1.2,0.9,2,0.9c0.8,0,1.4-0.3,1.9-0.8S152.5,353.5,152.5,352.6z"/>
		<path class="st8" d="M159.1,345.5c-0.4-0.4-0.6-0.8-0.6-1.4c0-0.5,0.2-1,0.6-1.4c0.4-0.4,0.8-0.6,1.4-0.6c0.5,0,1,0.2,1.4,0.6
			c0.4,0.4,0.6,0.8,0.6,1.4c0,0.5-0.2,1-0.6,1.4c-0.4,0.4-0.8,0.6-1.4,0.6C159.9,346.1,159.5,345.9,159.1,345.5z M162.1,358.6h-3.2
			V347h3.2V358.6z"/>
		<path class="st8" d="M169,349.3v5.2c0,0.4,0.1,0.8,0.3,1c0.2,0.3,0.5,0.4,0.8,0.4c0.6,0,1.1-0.3,1.5-0.8l1.2,2.3
			c-1,0.9-2.1,1.4-3.2,1.4c-1.1,0-2.1-0.4-2.8-1.1c-0.8-0.7-1.2-1.7-1.2-3v-5.4h-1.4V347h1.4v-3.5h3.3v3.5h2.8v2.3H169z"/>
		<path class="st8" d="M183.4,355c0,1.1-0.4,2.1-1.3,2.8c-0.8,0.7-1.9,1-3.2,1c-0.9,0-1.8-0.2-2.7-0.5c-0.9-0.3-1.8-0.8-2.5-1.4
			l1.4-2c1.2,0.9,2.5,1.4,3.9,1.4c0.4,0,0.7-0.1,1-0.2c0.2-0.2,0.4-0.4,0.4-0.7c0-0.3-0.2-0.5-0.5-0.8c-0.3-0.2-0.8-0.4-1.5-0.6
			c-0.6-0.2-1.1-0.4-1.5-0.5c-0.3-0.1-0.7-0.4-1.2-0.6c-0.9-0.5-1.3-1.4-1.3-2.4c0-1.1,0.4-1.9,1.3-2.6c0.9-0.7,2-1,3.4-1
			c1.4,0,2.7,0.5,4.1,1.4l-1.2,2.2c-1-0.7-2-1-3-1c-1,0-1.5,0.3-1.5,0.8c0,0.3,0.2,0.5,0.5,0.7c0.3,0.2,0.8,0.4,1.6,0.6
			c0.7,0.2,1.3,0.4,1.6,0.5c0.3,0.1,0.7,0.3,1.1,0.6C183,353,183.4,353.9,183.4,355z"/>
	</g>
	<g class="st7">
		<path class="st8" d="M204.3,356.9c-1.3,1.2-2.9,1.9-4.6,1.9c-1.8,0-3.2-0.5-4.4-1.6c-1.2-1.1-1.7-2.5-1.7-4.4
			c0-1.8,0.6-3.3,1.8-4.4c1.2-1.1,2.6-1.6,4.2-1.6c1.6,0,3,0.5,4.1,1.4c1.1,1,1.7,2.3,1.7,4v1.7h-8.5c0.1,0.6,0.4,1.2,1,1.6
			c0.6,0.4,1.2,0.6,1.9,0.6c1.1,0,2.1-0.4,2.8-1.1L204.3,356.9z M201.2,350c-0.4-0.4-1-0.6-1.6-0.6c-0.6,0-1.2,0.2-1.8,0.6
			c-0.5,0.4-0.8,0.9-0.9,1.6h5.1C201.9,350.9,201.7,350.4,201.2,350z"/>
	</g>
	<g class="st7">
		<path class="st8" d="M209.8,347l2,3.1l2.1-3.1h3.8l-4,5.7l4.2,5.9H214l-2.3-3.2l-2.2,3.2h-3.7l4.1-5.9L206,347H209.8z"/>
	</g>
	<g class="st7">
		<path class="st8" d="M218.8,352.6c-0.4-0.4-0.6-0.8-0.6-1.4c0-0.5,0.2-1,0.6-1.4c0.4-0.4,0.8-0.6,1.4-0.6c0.5,0,1,0.2,1.4,0.6
			c0.4,0.4,0.6,0.8,0.6,1.4c0,0.5-0.2,1-0.6,1.4c-0.4,0.4-0.8,0.6-1.4,0.6C219.6,353.1,219.2,352.9,218.8,352.6z M218.8,358.2
			c-0.4-0.4-0.6-0.8-0.6-1.4c0-0.5,0.2-1,0.6-1.4c0.4-0.4,0.8-0.6,1.4-0.6c0.5,0,1,0.2,1.4,0.6c0.4,0.4,0.6,0.8,0.6,1.4
			c0,0.5-0.2,1-0.6,1.4c-0.4,0.4-0.8,0.6-1.4,0.6C219.6,358.8,219.2,358.6,218.8,358.2z"/>
		<path class="st8" d="M236.7,358.8c-2.1,0-3.7-0.7-4.7-2.1c-1-1.4-1.6-3.3-1.6-5.7c0-2.4,0.5-4.3,1.6-5.7c1-1.4,2.6-2.1,4.7-2.1
			c2.1,0,3.7,0.7,4.7,2.1c1,1.4,1.6,3.3,1.6,5.7c0,2.4-0.5,4.3-1.6,5.7C240.3,358.1,238.8,358.8,236.7,358.8z M234.5,347.3
			c-0.5,0.9-0.7,2.1-0.7,3.7c0,1.5,0.2,2.7,0.7,3.7c0.5,0.9,1.2,1.4,2.2,1.4c1,0,1.8-0.5,2.2-1.4c0.5-0.9,0.7-2.1,0.7-3.7
			c0-1.5-0.2-2.7-0.7-3.7c-0.5-0.9-1.2-1.4-2.2-1.4C235.7,345.9,234.9,346.4,234.5,347.3z"/>
	</g>
	<g class="st7">
		<path class="st8" d="M248.8,358.8c-2.1,0-3.7-0.7-4.7-2.1c-1-1.4-1.6-3.3-1.6-5.7c0-2.4,0.5-4.3,1.6-5.7c1-1.4,2.6-2.1,4.7-2.1
			c2.1,0,3.7,0.7,4.7,2.1c1,1.4,1.6,3.3,1.6,5.7c0,2.4-0.5,4.3-1.6,5.7C252.5,358.1,250.9,358.8,248.8,358.8z M246.6,347.3
			c-0.5,0.9-0.7,2.1-0.7,3.7c0,1.5,0.2,2.7,0.7,3.7c0.5,0.9,1.2,1.4,2.2,1.4c1,0,1.8-0.5,2.2-1.4c0.5-0.9,0.7-2.1,0.7-3.7
			c0-1.5-0.2-2.7-0.7-3.7c-0.5-0.9-1.2-1.4-2.2-1.4C247.8,345.9,247.1,346.4,246.6,347.3z"/>
	</g>
	<g class="st7">
		<path class="st8" d="M256.3,343.5h6.1v15.1h-3.2v-12.2h-2.9V343.5z"/>
		<path class="st8" d="M266.3,358.4c-0.5-0.4-0.8-0.8-0.8-1.4c0-0.6,0.2-1,0.6-1.4c0.4-0.4,0.9-0.6,1.4-0.6c0.5,0,1,0.2,1.4,0.5
			c0.4,0.4,0.6,0.8,0.6,1.3s-0.2,1.1-0.6,1.7l-1.3,2.2h-2.1L266.3,358.4z"/>
		<path class="st8" d="M284,358.8c-2.1,0-3.7-0.7-4.7-2.1c-1-1.4-1.6-3.3-1.6-5.7c0-2.4,0.5-4.3,1.6-5.7c1-1.4,2.6-2.1,4.7-2.1
			c2.1,0,3.7,0.7,4.7,2.1c1,1.4,1.6,3.3,1.6,5.7c0,2.4-0.5,4.3-1.6,5.7C287.6,358.1,286,358.8,284,358.8z M281.7,347.3
			c-0.5,0.9-0.7,2.1-0.7,3.7c0,1.5,0.2,2.7,0.7,3.7c0.5,0.9,1.2,1.4,2.2,1.4c1,0,1.8-0.5,2.2-1.4c0.5-0.9,0.7-2.1,0.7-3.7
			c0-1.5-0.2-2.7-0.7-3.7c-0.5-0.9-1.2-1.4-2.2-1.4C282.9,345.9,282.2,346.4,281.7,347.3z"/>
	</g>
	<g class="st7">
		<path class="st8" d="M295.5,358.8c-2.1,0-3.7-0.7-4.7-2.1c-1-1.4-1.6-3.3-1.6-5.7c0-2.4,0.5-4.3,1.6-5.7c1-1.4,2.6-2.1,4.7-2.1
			c2.1,0,3.7,0.7,4.7,2.1c1,1.4,1.6,3.3,1.6,5.7c0,2.4-0.5,4.3-1.6,5.7C299.1,358.1,297.6,358.8,295.5,358.8z M293.3,347.3
			c-0.5,0.9-0.7,2.1-0.7,3.7c0,1.5,0.2,2.7,0.7,3.7c0.5,0.9,1.2,1.4,2.2,1.4c1,0,1.8-0.5,2.2-1.4c0.5-0.9,0.7-2.1,0.7-3.7
			c0-1.5-0.2-2.7-0.7-3.7c-0.5-0.9-1.2-1.4-2.2-1.4C294.5,345.9,293.7,346.4,293.3,347.3z"/>
	</g>
	<g class="st7">
		<path class="st8" d="M309.9,349.4c0.4-0.5,0.6-1.1,0.6-1.6c0-0.5-0.2-0.9-0.5-1.3c-0.3-0.3-0.8-0.5-1.3-0.5c-1,0-1.9,0.7-2.7,2
			l-2.7-1.6c0.7-1.1,1.5-1.9,2.3-2.5s1.9-0.8,3.2-0.8c1.3,0,2.5,0.4,3.4,1.2c1,0.8,1.5,2,1.5,3.4c0,0.8-0.2,1.5-0.6,2.2
			s-1.1,1.6-2.2,2.7l-2.7,2.8h6v3h-10.7v-2.5l4.4-4.5C308.9,350.7,309.5,349.9,309.9,349.4z"/>
		<path class="st8" d="M332.7,356.9c-1.3,1.2-2.9,1.9-4.6,1.9c-1.8,0-3.2-0.5-4.4-1.6c-1.2-1.1-1.7-2.5-1.7-4.4
			c0-1.8,0.6-3.3,1.8-4.4c1.2-1.1,2.6-1.6,4.2-1.6c1.6,0,3,0.5,4.1,1.4c1.1,1,1.7,2.3,1.7,4v1.7h-8.5c0.1,0.6,0.4,1.2,1,1.6
			c0.6,0.4,1.2,0.6,1.9,0.6c1.1,0,2.1-0.4,2.8-1.1L332.7,356.9z M329.6,350c-0.4-0.4-1-0.6-1.6-0.6s-1.2,0.2-1.8,0.6
			c-0.5,0.4-0.8,0.9-0.9,1.6h5.1C330.3,350.9,330,350.4,329.6,350z"/>
	</g>
	<g class="st7">
		<path class="st8" d="M338.7,349.3v5.2c0,0.4,0.1,0.8,0.3,1c0.2,0.3,0.5,0.4,0.8,0.4c0.6,0,1.1-0.3,1.5-0.8l1.2,2.3
			c-1,0.9-2.1,1.4-3.2,1.4s-2.1-0.4-2.8-1.1c-0.8-0.7-1.2-1.7-1.2-3v-5.4h-1.4V347h1.4v-3.5h3.3v3.5h2.8v2.3H338.7z"/>
	</g>
	<g class="st7">
		<path class="st8" d="M348.8,355.9c1.1,0,2.1-0.5,2.9-1.6l1.9,2.2c-1.5,1.6-3.1,2.3-4.9,2.3s-3.2-0.6-4.4-1.7
			c-1.2-1.1-1.8-2.5-1.8-4.3c0-1.8,0.6-3.2,1.8-4.3c1.2-1.1,2.7-1.7,4.3-1.7c0.8,0,1.7,0.2,2.5,0.5c0.9,0.3,1.6,0.9,2.3,1.5
			l-1.7,2.2c-0.4-0.4-0.8-0.8-1.4-1c-0.5-0.2-1.1-0.4-1.6-0.4c-0.9,0-1.6,0.3-2.2,0.8c-0.6,0.6-0.9,1.3-0.9,2.3c0,1,0.3,1.8,0.9,2.3
			C347.3,355.6,348,355.9,348.8,355.9z"/>
	</g>
	<g class="st7">
		<path class="st8" d="M356.1,358.2c-0.4-0.4-0.6-0.8-0.6-1.4c0-0.5,0.2-1,0.6-1.4c0.4-0.4,0.8-0.6,1.4-0.6c0.5,0,1,0.2,1.4,0.6
			c0.4,0.4,0.6,0.8,0.6,1.4c0,0.5-0.2,1-0.6,1.4c-0.4,0.4-0.8,0.6-1.4,0.6C356.9,358.8,356.4,358.6,356.1,358.2z"/>
		<path class="st8" d="M362.3,358.2c-0.4-0.4-0.6-0.8-0.6-1.4c0-0.5,0.2-1,0.6-1.4c0.4-0.4,0.8-0.6,1.4-0.6c0.5,0,1,0.2,1.4,0.6
			c0.4,0.4,0.6,0.8,0.6,1.4c0,0.5-0.2,1-0.6,1.4c-0.4,0.4-0.8,0.6-1.4,0.6C363.1,358.8,362.6,358.6,362.3,358.2z"/>
		<path class="st8" d="M368.5,358.2c-0.4-0.4-0.6-0.8-0.6-1.4c0-0.5,0.2-1,0.6-1.4c0.4-0.4,0.8-0.6,1.4-0.6c0.5,0,1,0.2,1.4,0.6
			c0.4,0.4,0.6,0.8,0.6,1.4c0,0.5-0.2,1-0.6,1.4c-0.4,0.4-0.8,0.6-1.4,0.6C369.3,358.8,368.9,358.6,368.5,358.2z"/>
	</g>
</g>
<g>
	<g class="st7">
		<path class="st8" d="M94.4,468.6h3.4V484h-3.4v-6h-6.1v6h-3.4v-15.4h3.4v6.4h6.1V468.6z"/>
		<path class="st8" d="M113.1,478c0,1.7-0.6,3.2-1.8,4.3c-1.2,1.2-2.7,1.8-4.5,1.8c-1.8,0-3.3-0.6-4.5-1.8c-1.2-1.2-1.8-2.6-1.8-4.3
			s0.6-3.2,1.8-4.3s2.7-1.8,4.5-1.8c1.8,0,3.3,0.6,4.5,1.8S113.1,476.3,113.1,478z M103.9,478c0,1,0.3,1.8,0.8,2.4
			c0.6,0.6,1.3,0.9,2.1,0.9c0.9,0,1.6-0.3,2.1-0.9s0.8-1.4,0.8-2.4s-0.3-1.8-0.8-2.4s-1.3-0.9-2.1-0.9c-0.9,0-1.6,0.3-2.1,0.9
			C104.2,476.3,103.9,477.1,103.9,478z"/>
		<path class="st8" d="M121.5,484h-3.4l-4-11.8h3.4l2.3,7.2l2.3-7.2h3.2l2.3,7.2l2.3-7.2h3.4l-4,11.8h-3.4l-2.2-6.4L121.5,484z"/>
		<path class="st8" d="M151.8,477.6v6.4h-3.3v-6.5c0-0.9-0.1-1.6-0.4-2.1c-0.3-0.4-0.7-0.7-1.4-0.7s-1.2,0.2-1.7,0.7
			c-0.5,0.5-0.7,1.2-0.7,2.1v6.4H141v-11.8h3.3v1.3c0.9-1,2-1.5,3.1-1.5c0.7,0,1.4,0.2,2,0.7c0.6,0.4,1.1,1,1.4,1.6
			c0.5-0.7,1.1-1.3,1.8-1.7c0.8-0.4,1.5-0.6,2.3-0.6c1.4,0,2.5,0.4,3.4,1.2c0.9,0.8,1.3,2,1.3,3.6v7.2h-3.3v-6.5
			c0-1.8-0.7-2.7-2-2.7c-0.7,0-1.2,0.2-1.7,0.7C152.1,476,151.8,476.7,151.8,477.6z"/>
		<path class="st8" d="M172.6,484h-3.1v-1.4c-0.9,1.1-1.9,1.6-3.2,1.6s-2.3-0.4-3.2-1.1c-0.9-0.7-1.3-1.7-1.3-2.9s0.4-2.1,1.3-2.7
			c0.9-0.6,2.1-0.9,3.6-0.9h2.5v-0.1c0-1.3-0.7-1.9-2-1.9c-0.6,0-1.2,0.1-1.8,0.3s-1.2,0.5-1.6,0.8l-1.5-2.1
			c1.6-1.1,3.3-1.7,5.3-1.7c1.4,0,2.6,0.4,3.5,1.1c0.9,0.7,1.4,1.9,1.4,3.4V484z M169.3,479.4v-0.6h-2.1c-1.3,0-2,0.4-2,1.2
			c0,0.4,0.2,0.8,0.5,1c0.3,0.2,0.8,0.3,1.4,0.3s1.1-0.2,1.6-0.5C169.1,480.5,169.3,480,169.3,479.4z"/>
		<path class="st8" d="M179,477.4v6.6h-3.3v-11.8h3.3v1.3c1-1,2.1-1.5,3.4-1.5s2.3,0.4,3.1,1.3s1.3,2.1,1.3,3.5v7.2h-3.3v-6.7
			c0-1.8-0.7-2.7-2-2.7c-0.7,0-1.2,0.2-1.7,0.7C179.2,475.7,179,476.4,179,477.4z"/>
		<path class="st8" d="M191.6,488.6c-1.2,0-2.3-0.5-3.3-1.4l1.5-2.4c0.6,0.5,1.1,0.8,1.7,0.8c0.3,0,0.6-0.2,0.8-0.5s0.3-0.6,0.3-1
			c0-0.3-1.5-4.4-4.6-12.1h3.5l2.9,7.4l2.9-7.4h3.5l-5.5,13.9c-0.3,0.8-0.8,1.4-1.5,1.9C193.2,488.4,192.4,488.6,191.6,488.6z"/>
		<path class="st8" d="M212.2,474.5v5.3c0,0.5,0.1,0.8,0.4,1.1c0.2,0.3,0.5,0.4,0.8,0.4c0.6,0,1.1-0.3,1.6-0.8l1.2,2.3
			c-1,0.9-2.1,1.4-3.2,1.4s-2.1-0.4-2.9-1.1s-1.2-1.8-1.2-3.1v-5.5h-1.4v-2.4h1.4v-3.5h3.3v3.5h2.9v2.4H212.2z"/>
		<path class="st8" d="M218.3,470.6c-0.4-0.4-0.6-0.8-0.6-1.4s0.2-1,0.6-1.4s0.8-0.6,1.4-0.6s1,0.2,1.4,0.6s0.6,0.8,0.6,1.4
			s-0.2,1-0.6,1.4s-0.8,0.6-1.4,0.6S218.6,471,218.3,470.6z M221.3,484H218v-11.8h3.3V484z"/>
		<path class="st8" d="M230.1,481.2c1.1,0,2.1-0.5,3-1.7l2,2.2c-1.5,1.6-3.2,2.4-5,2.4s-3.3-0.6-4.5-1.7s-1.8-2.6-1.8-4.4
			c0-1.8,0.6-3.3,1.9-4.4s2.7-1.7,4.4-1.7c0.9,0,1.7,0.2,2.6,0.5c0.9,0.4,1.6,0.9,2.3,1.6l-1.7,2.2c-0.4-0.5-0.8-0.8-1.4-1.1
			c-0.5-0.2-1.1-0.4-1.6-0.4c-0.9,0-1.6,0.3-2.2,0.8c-0.6,0.6-0.9,1.3-0.9,2.4s0.3,1.8,0.9,2.3S229.2,481.2,230.1,481.2z"/>
		<path class="st8" d="M240.5,484h-3.3v-16.3h3.3v8.4l3.7-3.9h4.2l-4.5,4.8l4.7,7.1h-3.9l-3-4.5l-1.1,1.1V484z"/>
		<path class="st8" d="M260.5,482.2c-1.3,1.3-2.9,1.9-4.7,1.9c-1.8,0-3.3-0.6-4.5-1.7c-1.2-1.1-1.8-2.6-1.8-4.5
			c0-1.9,0.6-3.3,1.8-4.4c1.2-1.1,2.6-1.7,4.2-1.7c1.6,0,3,0.5,4.1,1.5c1.1,1,1.7,2.3,1.7,4v1.8h-8.6c0.1,0.6,0.4,1.2,1,1.6
			c0.6,0.4,1.2,0.6,1.9,0.6c1.2,0,2.1-0.4,2.9-1.2L260.5,482.2z M257.4,475.2c-0.5-0.4-1-0.6-1.7-0.6c-0.7,0-1.3,0.2-1.8,0.6
			c-0.5,0.4-0.9,0.9-0.9,1.6h5.2C258.1,476.1,257.8,475.6,257.4,475.2z"/>
		<path class="st8" d="M267.7,474.5v5.3c0,0.5,0.1,0.8,0.4,1.1c0.2,0.3,0.5,0.4,0.8,0.4c0.6,0,1.1-0.3,1.6-0.8l1.2,2.3
			c-1,0.9-2.1,1.4-3.2,1.4s-2.1-0.4-2.9-1.1s-1.2-1.8-1.2-3.1v-5.5H263v-2.4h1.4v-3.5h3.3v3.5h2.9v2.4H267.7z"/>
		<path class="st8" d="M282.4,480.3c0,1.2-0.4,2.1-1.3,2.8s-1.9,1.1-3.3,1.1c-0.9,0-1.8-0.2-2.8-0.5c-1-0.3-1.8-0.8-2.6-1.4l1.5-2.1
			c1.2,1,2.5,1.4,3.9,1.4c0.4,0,0.8-0.1,1-0.3c0.2-0.2,0.4-0.4,0.4-0.7s-0.2-0.5-0.5-0.8c-0.3-0.2-0.8-0.5-1.5-0.7
			c-0.7-0.2-1.2-0.4-1.5-0.5s-0.7-0.4-1.2-0.6c-0.9-0.6-1.3-1.4-1.3-2.5s0.4-2,1.3-2.7s2-1,3.4-1s2.8,0.5,4.2,1.4l-1.2,2.2
			c-1-0.7-2-1.1-3.1-1.1c-1,0-1.5,0.3-1.5,0.8c0,0.3,0.2,0.6,0.5,0.7s0.9,0.4,1.6,0.6c0.7,0.2,1.3,0.4,1.6,0.5
			c0.3,0.1,0.7,0.3,1.1,0.6C281.9,478.3,282.4,479.1,282.4,480.3z"/>
		<path class="st8" d="M291,470.6c-0.4-0.4-0.6-0.8-0.6-1.4s0.2-1,0.6-1.4s0.8-0.6,1.4-0.6s1,0.2,1.4,0.6s0.6,0.8,0.6,1.4
			s-0.2,1-0.6,1.4s-0.8,0.6-1.4,0.6S291.3,471,291,470.6z M294,484h-3.3v-11.8h3.3V484z"/>
		<path class="st8" d="M300.4,477.4v6.6h-3.3v-11.8h3.3v1.3c1-1,2.1-1.5,3.4-1.5s2.3,0.4,3.1,1.3s1.3,2.1,1.3,3.5v7.2h-3.3v-6.7
			c0-1.8-0.7-2.7-2-2.7c-0.7,0-1.2,0.2-1.7,0.7C300.7,475.7,300.4,476.4,300.4,477.4z"/>
		<path class="st8" d="M327,484h-3.1v-1.4c-0.9,1.1-1.9,1.6-3.2,1.6s-2.3-0.4-3.2-1.1c-0.9-0.7-1.3-1.7-1.3-2.9s0.4-2.1,1.3-2.7
			c0.9-0.6,2.1-0.9,3.6-0.9h2.5v-0.1c0-1.3-0.7-1.9-2-1.9c-0.6,0-1.2,0.1-1.8,0.3s-1.2,0.5-1.6,0.8l-1.5-2.1
			c1.6-1.1,3.3-1.7,5.3-1.7c1.4,0,2.6,0.4,3.5,1.1c0.9,0.7,1.4,1.9,1.4,3.4V484z M323.7,479.4v-0.6h-2.1c-1.3,0-2,0.4-2,1.2
			c0,0.4,0.2,0.8,0.5,1c0.3,0.2,0.8,0.3,1.4,0.3s1.1-0.2,1.6-0.5C323.5,480.5,323.7,480,323.7,479.4z"/>
		<path class="st8" d="M93.4,506.7c0,1.2-0.4,2.1-1.3,2.8s-1.9,1.1-3.3,1.1c-0.9,0-1.8-0.2-2.8-0.5c-1-0.3-1.8-0.8-2.6-1.4l1.5-2.1
			c1.2,1,2.5,1.4,3.9,1.4c0.4,0,0.8-0.1,1-0.3c0.2-0.2,0.4-0.4,0.4-0.7s-0.2-0.5-0.5-0.8c-0.3-0.2-0.8-0.5-1.5-0.7
			c-0.7-0.2-1.2-0.4-1.5-0.5s-0.7-0.4-1.2-0.6c-0.9-0.6-1.3-1.4-1.3-2.5s0.4-2,1.3-2.7s2-1,3.4-1s2.8,0.5,4.2,1.4l-1.2,2.2
			c-1-0.7-2-1.1-3.1-1.1c-1,0-1.5,0.3-1.5,0.8c0,0.3,0.2,0.6,0.5,0.7s0.9,0.4,1.6,0.6c0.7,0.2,1.3,0.4,1.6,0.5
			c0.3,0.1,0.7,0.3,1.1,0.6C93,504.7,93.4,505.5,93.4,506.7z"/>
		<path class="st8" d="M96.2,497c-0.4-0.4-0.6-0.8-0.6-1.4s0.2-1,0.6-1.4s0.8-0.6,1.4-0.6s1,0.2,1.4,0.6s0.6,0.8,0.6,1.4
			s-0.2,1-0.6,1.4s-0.8,0.6-1.4,0.6S96.6,497.4,96.2,497z M99.2,510.4h-3.3v-11.8h3.3V510.4z"/>
		<path class="st8" d="M105.6,503.8v6.6h-3.3v-11.8h3.3v1.3c1-1,2.1-1.5,3.4-1.5s2.3,0.4,3.1,1.3s1.3,2.1,1.3,3.5v7.2h-3.3v-6.7
			c0-1.8-0.7-2.7-2-2.7c-0.7,0-1.2,0.2-1.7,0.7C105.9,502.1,105.6,502.8,105.6,503.8z"/>
		<path class="st8" d="M125.2,508.4c-1,1.2-2.3,1.7-3.9,1.7c-1.5,0-2.9-0.5-3.9-1.6c-1.1-1-1.6-2.4-1.6-4.2c0-1.8,0.5-3.2,1.6-4.3
			c1.1-1.1,2.3-1.7,3.8-1.7s2.6,0.6,3.5,1.7v-1.6h3.3v10.3c0,1.1-0.2,2-0.5,2.8c-0.4,0.8-0.9,1.5-1.5,1.9c-1.2,1-2.7,1.5-4.3,1.5
			c-0.9,0-1.8-0.1-2.7-0.4c-0.9-0.3-1.7-0.7-2.4-1.2l1.3-2.5c1.1,0.8,2.2,1.2,3.4,1.2s2.2-0.3,2.9-0.9
			C124.8,510.6,125.2,509.7,125.2,508.4z M124.7,504.2c0-0.9-0.3-1.7-0.8-2.2c-0.5-0.5-1.2-0.8-2-0.8s-1.4,0.3-2,0.8
			c-0.6,0.5-0.8,1.3-0.8,2.2s0.3,1.7,0.8,2.3c0.6,0.6,1.2,0.9,2,0.9s1.5-0.3,2-0.9C124.4,505.9,124.7,505.1,124.7,504.2z"/>
		<path class="st8" d="M134.4,510.4h-3.3V494h3.3V510.4z"/>
		<path class="st8" d="M147.8,508.6c-1.3,1.3-2.9,1.9-4.7,1.9c-1.8,0-3.3-0.6-4.5-1.7c-1.2-1.1-1.8-2.6-1.8-4.5
			c0-1.9,0.6-3.3,1.8-4.4c1.2-1.1,2.6-1.7,4.2-1.7c1.6,0,3,0.5,4.1,1.5c1.1,1,1.7,2.3,1.7,4v1.8h-8.6c0.1,0.6,0.4,1.2,1,1.6
			c0.6,0.4,1.2,0.6,1.9,0.6c1.2,0,2.1-0.4,2.9-1.2L147.8,508.6z M144.6,501.6c-0.5-0.4-1-0.6-1.7-0.6c-0.7,0-1.3,0.2-1.8,0.6
			c-0.5,0.4-0.9,0.9-0.9,1.6h5.2C145.3,502.5,145,502,144.6,501.6z"/>
		<path class="st8" d="M165.8,506.7c0,1.2-0.4,2.1-1.3,2.8s-1.9,1.1-3.3,1.1c-0.9,0-1.8-0.2-2.8-0.5c-1-0.3-1.8-0.8-2.6-1.4l1.5-2.1
			c1.2,1,2.5,1.4,3.9,1.4c0.4,0,0.8-0.1,1-0.3c0.2-0.2,0.4-0.4,0.4-0.7s-0.2-0.5-0.5-0.8c-0.3-0.2-0.8-0.5-1.5-0.7
			c-0.7-0.2-1.2-0.4-1.5-0.5s-0.7-0.4-1.2-0.6c-0.9-0.6-1.3-1.4-1.3-2.5s0.4-2,1.3-2.7s2-1,3.4-1s2.8,0.5,4.2,1.4l-1.2,2.2
			c-1-0.7-2-1.1-3.1-1.1c-1,0-1.5,0.3-1.5,0.8c0,0.3,0.2,0.6,0.5,0.7s0.9,0.4,1.6,0.6c0.7,0.2,1.3,0.4,1.6,0.5
			c0.3,0.1,0.7,0.3,1.1,0.6C165.4,504.7,165.8,505.5,165.8,506.7z"/>
		<path class="st8" d="M171.6,504v6.4h-3.3V494h3.3v5.8c1-1,2.1-1.5,3.4-1.5s2.3,0.4,3.1,1.3c0.9,0.9,1.3,2.1,1.3,3.5v7.2h-3.3v-6.5
			c0-1.8-0.7-2.7-2-2.7c-0.7,0-1.2,0.2-1.7,0.7C171.9,502.4,171.6,503.1,171.6,504z"/>
		<path class="st8" d="M192.7,508.6c-1.3,1.3-2.9,1.9-4.7,1.9c-1.8,0-3.3-0.6-4.5-1.7c-1.2-1.1-1.8-2.6-1.8-4.5
			c0-1.9,0.6-3.3,1.8-4.4c1.2-1.1,2.6-1.7,4.2-1.7c1.6,0,3,0.5,4.1,1.5c1.1,1,1.7,2.3,1.7,4v1.8H185c0.1,0.6,0.4,1.2,1,1.6
			c0.6,0.4,1.2,0.6,1.9,0.6c1.2,0,2.1-0.4,2.9-1.2L192.7,508.6z M189.5,501.6c-0.5-0.4-1-0.6-1.7-0.6c-0.7,0-1.3,0.2-1.8,0.6
			c-0.5,0.4-0.9,0.9-0.9,1.6h5.2C190.2,502.5,189.9,502,189.5,501.6z"/>
		<path class="st8" d="M206.3,508.6c-1.3,1.3-2.9,1.9-4.7,1.9c-1.8,0-3.3-0.6-4.5-1.7c-1.2-1.1-1.8-2.6-1.8-4.5
			c0-1.9,0.6-3.3,1.8-4.4c1.2-1.1,2.6-1.7,4.2-1.7c1.6,0,3,0.5,4.1,1.5c1.1,1,1.7,2.3,1.7,4v1.8h-8.6c0.1,0.6,0.4,1.2,1,1.6
			c0.6,0.4,1.2,0.6,1.9,0.6c1.2,0,2.1-0.4,2.9-1.2L206.3,508.6z M203.1,501.6c-0.5-0.4-1-0.6-1.7-0.6c-0.7,0-1.3,0.2-1.8,0.6
			c-0.5,0.4-0.9,0.9-0.9,1.6h5.2C203.8,502.5,203.5,502,203.1,501.6z"/>
		<path class="st8" d="M213.4,500.9v5.3c0,0.5,0.1,0.8,0.4,1.1c0.2,0.3,0.5,0.4,0.8,0.4c0.6,0,1.1-0.3,1.6-0.8l1.2,2.3
			c-1,0.9-2.1,1.4-3.2,1.4s-2.1-0.4-2.9-1.1s-1.2-1.8-1.2-3.1v-5.5h-1.4v-2.4h1.4V495h3.3v3.5h2.9v2.4H213.4z"/>
	</g>
</g>
<path class="st1" d="M410.2,175.2h202.6c15.3,0,27.8,12.4,27.8,27.8v29.8c0,15.3-12.4,27.8-27.8,27.8H410.2
	c-15.3,0-27.8-12.4-27.8-27.8v-29.8C382.4,187.6,394.9,175.2,410.2,175.2z"/>
<path class="st1" d="M410.2,290.6h202.6c15.3,0,27.8,12.4,27.8,27.8v29.8c0,15.3-12.4,27.8-27.8,27.8H410.2
	c-15.3,0-27.8-12.4-27.8-27.8v-29.8C382.4,303,394.9,290.6,410.2,290.6z"/>
<path class="st1" d="M410.2,406h202.6c15.3,0,27.8,12.4,27.8,27.8v29.8c0,15.3-12.4,27.8-27.8,27.8H410.2
	c-15.3,0-27.8-12.4-27.8-27.8v-29.8C382.4,418.4,394.9,406,410.2,406z"/>
<text transform="matrix(1 0 0 1 82.33 220.3)" class="st2 st3 st4">E</text>
<text transform="matrix(1 0 0 1 106.8 220.3)" class="st2 st3 st4">nd</text>
<text transform="matrix(1 0 0 1 155.99 220.3)" class="st5 st3 st4"> </text>
<text transform="matrix(1 0 0 1 165.94 220.3)" class="st6 st3 st4">Number</text>
<text transform="matrix(1 0 0 1 83.91 329.11)" class="st2 st3 st4">D</text>
<text transform="matrix(1 0 0 1 112.67 329.11)" class="st2 st3 st4">igit</text>
<text transform="matrix(1 0 0 1 176.42 329.11)" class="st6 st3 st4">s</text>
<text transform="matrix(1 0 0 1 82.33 454.97)" class="st2 st3 st4">Multi</text>
<text transform="matrix(1 0 0 1 181.02 454.97)" class="st5 st3 st4"> </text>
<text transform="matrix(1 0 0 1 190.97 454.97)" class="st6 st3 st4">Outs</text>
</svg>
