<svg xmlns="http://www.w3.org/2000/svg" viewBox="0 0 722.84 630.62"><defs><style>.cls-1{fill:none;stroke-width:4.09px;}.cls-1,.cls-2{stroke:#27aae1;stroke-miterlimit:10;}.cls-2{fill:#fff;stroke-width:4px;}.cls-3{font-size:37.7px;fill:#ed1c24;font-family:Montserrat-Bold, Montserrat;font-weight:700;}.cls-4{letter-spacing:-0.01em;}.cls-5{fill:#231f20;}.cls-6{fill:#27aae1;}.cls-7{font-size:18px;fill:#6d6e71;font-family:Montserrat-Regular, Montserrat;}.cls-8{letter-spacing:0.02em;}.cls-9{letter-spacing:0em;}.cls-10{letter-spacing:-0.01em;}.cls-11{letter-spacing:-0.01em;}.cls-12{letter-spacing:0em;}.cls-13{letter-spacing:-0.02em;}.cls-14{letter-spacing:-0.01em;}.cls-15{letter-spacing:0em;}.cls-16{letter-spacing:0em;}.cls-17{letter-spacing:0em;}.cls-18{letter-spacing:-0.02em;}.cls-19{letter-spacing:0.02em;}.cls-20{letter-spacing:0em;}.cls-21{letter-spacing:0em;}.cls-22{letter-spacing:-0.01em;}.cls-23{letter-spacing:0em;}</style></defs><g id="Layer_2" data-name="Layer 2"><g id="Layer_1-2" data-name="Layer 1"><rect class="cls-1" x="2.04" y="2.04" width="718.75" height="626.53" rx="65.63"/><rect class="cls-2" x="382.44" y="50.36" width="258.07" height="85.31" rx="27.75"/><text class="cls-3" transform="translate(82.33 95.47)"><tspan class="cls-4">S</tspan><tspan x="23.52" y="0">tart</tspan><tspan class="cls-5" x="94.58" y="0"> </tspan><tspan class="cls-6" x="104.53" y="0">Number</tspan></text><text class="cls-7" transform="translate(82.33 123.66)">Sta<tspan class="cls-8" x="29" y="0">r</tspan><tspan x="36.49" y="0">ti</tspan><tspan class="cls-9" x="48.64" y="0">n</tspan><tspan x="60.86" y="0">g number </tspan><tspan class="cls-10" x="156.33" y="0">e</tspan><tspan class="cls-11" x="166.93" y="0">x</tspan><tspan x="176.36" y="0">: 1</tspan></text><text class="cls-7" transform="translate(82.33 240.51)">E<tspan class="cls-9" x="12.04" y="0">n</tspan><tspan class="cls-12" x="24.26" y="0">di</tspan><tspan class="cls-9" x="41.31" y="0">n</tspan><tspan x="53.53" y="0">g number </tspan><tspan class="cls-10" x="149" y="0">e</tspan><tspan class="cls-11" x="159.6" y="0">x</tspan><tspan x="169.04" y="0">: 100</tspan></text><text class="cls-7" transform="translate(82.33 355.5)">If 3 digits <tspan class="cls-13" x="86.18" y="0">e</tspan><tspan class="cls-14" x="96.78" y="0">x</tspan><tspan x="106.22" y="0">: 0</tspan><tspan class="cls-15" x="126.66" y="0">0</tspan><tspan x="138.54" y="0">1, 0</tspan><tspan class="cls-16" x="165.49" y="0">0</tspan><tspan class="cls-17" x="177.37" y="0">2 e</tspan><tspan class="cls-18" x="203.18" y="0">t</tspan><tspan class="cls-19" x="210.15" y="0">c</tspan><tspan x="220.64" y="0">...</tspan></text><text class="cls-7" transform="translate(82.33 479.29)">H<tspan class="cls-13" x="14.63" y="0">o</tspan><tspan x="25.65" y="0">w ma</tspan><tspan class="cls-14" x="75.91" y="0">n</tspan><tspan x="87.91" y="0">y file in a si</tspan><tspan class="cls-9" x="185.92" y="0">n</tspan><tspan x="198.14" y="0">gle s</tspan><tspan class="cls-9" x="239.72" y="0">h</tspan><tspan class="cls-17" x="251.94" y="0">eet</tspan></text><rect class="cls-2" x="382.44" y="175.19" width="258.07" height="85.31" rx="27.75"/><rect class="cls-2" x="382.44" y="290.59" width="258.07" height="85.31" rx="27.75"/><rect class="cls-2" x="382.44" y="405.99" width="258.07" height="85.31" rx="27.75"/><text class="cls-3" transform="translate(82.33 220.3)"><tspan class="cls-20">E</tspan><tspan class="cls-21" x="24.47" y="0">nd</tspan><tspan class="cls-5" x="73.66" y="0"> </tspan><tspan class="cls-6" x="83.61" y="0">Number</tspan></text><text class="cls-3" transform="translate(83.91 329.11)"><tspan class="cls-22">D</tspan><tspan class="cls-23" x="28.76" y="0">igit</tspan><tspan class="cls-6" x="92.51" y="0">s</tspan></text><text class="cls-3" transform="translate(82.33 454.97)">Multi<tspan class="cls-5" x="98.69" y="0"> </tspan><tspan class="cls-6" x="108.64" y="0">Outs</tspan></text></g></g></svg>